HIERARCHY
ROOT SpineBase
{
  OFFSET 0.000000 0.000000 0.000000
  CHANNELS 6 Xposition Yposition Zposition Zrotation Xrotation Yrotation
  JOINT SpineMid
  {
    OFFSET -0.000000 28.670756 0.000000
    CHANNELS 3 Zrotation Xrotation Yrotation
    JOINT SpineShoulder
    {
      OFFSET 0.156049 21.468332 -0.467977
      CHANNELS 3 Zrotation Xrotation Yrotation
      JOINT Neck
      {
        OFFSET 0.065905 7.093822 -0.413813
        CHANNELS 3 Zrotation Xrotation Yrotation
        JOINT Head
        {
          OFFSET -1.852928 12.339241 -0.411270
          CHANNELS 3 Zrotation Xrotation Yrotation
          End Site
          {
            OFFSET 0 0 0
          }
        }
      }
      JOINT ShoulderLeft
      {
        OFFSET -16.774818 -2.614768 3.588157
        CHANNELS 3 Zrotation Xrotation Yrotation
        JOINT ElbowLeft
        {
          OFFSET -4.999653 -24.840053 2.092144
          CHANNELS 3 Zrotation Xrotation Yrotation
          JOINT WristLeft
          {
            OFFSET -3.006081 -19.185121 -5.149473
            CHANNELS 3 Zrotation Xrotation Yrotation
            JOINT HandLeft
            {
              OFFSET -0.387733 -7.195086 -1.968950
              CHANNELS 3 Zrotation Xrotation Yrotation
              JOINT HandTipLeft
              {
                OFFSET -0.562440 -6.025051 -1.964912
                CHANNELS 3 Zrotation Xrotation Yrotation
                End Site
                {
                  OFFSET 0 0 0
                }
              }
              JOINT ThumbLeft
              {
                OFFSET 4.059105 -1.228919 -2.186670
                CHANNELS 3 Zrotation Xrotation Yrotation
                End Site
                {
                  OFFSET 0 0 0
                }
              }
            }
          }
        }
      }
      JOINT ShoulderRight
      {
        OFFSET 15.678601 -2.685661 -5.179940
        CHANNELS 3 Zrotation Xrotation Yrotation
        JOINT ElbowRight
        {
          OFFSET 5.776435 -24.882630 -3.178120
          CHANNELS 3 Zrotation Xrotation Yrotation
          JOINT WristRight
          {
            OFFSET -1.305919 -18.908681 -5.515794
            CHANNELS 3 Zrotation Xrotation Yrotation
            JOINT HandRight
            {
              OFFSET -1.928320 -8.140410 -1.631063
              CHANNELS 3 Zrotation Xrotation Yrotation
              JOINT HandTipRight
              {
                OFFSET -1.072234 -6.348752 -2.217530
                CHANNELS 3 Zrotation Xrotation Yrotation
                End Site
                {
                  OFFSET 0 0 0
                }
              }
              JOINT ThumbRight
              {
                OFFSET -2.884443 0.831363 -0.676558
                CHANNELS 3 Zrotation Xrotation Yrotation
                End Site
                {
                  OFFSET 0 0 0
                }
              }
            }
          }
        }
      }
    }
  }
  JOINT HipLeft
  {
    OFFSET -6.013225 0.388904 -1.888382
    CHANNELS 3 Zrotation Xrotation Yrotation
    JOINT KneeLeft
    {
      OFFSET -8.301726 -31.512508 5.053327
      CHANNELS 3 Zrotation Xrotation Yrotation
      JOINT AnkleLeft
      {
        OFFSET -1.837229 -33.974626 8.560274
        CHANNELS 3 Zrotation Xrotation Yrotation
        JOINT FootLeft
        {
          OFFSET -2.220984 -6.841699 -7.193342
          CHANNELS 3 Zrotation Xrotation Yrotation
          End Site
          {
            OFFSET 0 0 0
          }
        }
      }
    }
  }
  JOINT HipRight
  {
    OFFSET 5.700349 0.891004 -4.692463
    CHANNELS 3 Zrotation Xrotation Yrotation
    JOINT KneeRight
    {
      OFFSET 5.502718 -28.165733 2.038937
      CHANNELS 3 Zrotation Xrotation Yrotation
      JOINT AnkleRight
      {
        OFFSET 2.483749 -35.730863 10.544796
        CHANNELS 3 Zrotation Xrotation Yrotation
        JOINT FootRight
        {
          OFFSET -1.934904 -6.406533 -8.293914
          CHANNELS 3 Zrotation Xrotation Yrotation
          End Site
          {
            OFFSET 0 0 0
          }
        }
      }
    }
  }
}
MOTION
Frames: 9
Frame Time: 0.033333
18.382193 74.450590 364.921919 -0.054362 2.631956 6.989938 0.223720 -0.837054 -6.987413 0.037785 0.107078 0.007684 -7.520051 0.942373 0.124935 0.000000 0.000000 0.000000 -11.472228 -32.432677 1.840416 44.340011 4.256658 -25.616112 -86.622201 -13.674778 27.115052 113.580362 20.717778 -45.294778 0.000000 0.000000 0.000000 0.000000 0.000000 0.000000 -1.855331 -1.705729 0.197148 6.962758 2.110104 -2.073797 3.287977 22.405088 -7.495586 0.605888 -3.850705 1.498431 0.000000 0.000000 0.000000 0.000000 0.000000 0.000000 -2.245751 -1.976120 -7.504042 0.617128 0.946510 0.013334 0.878488 24.649805 -6.063208 0.000000 0.000000 0.000000 -1.709216 -6.201767 -7.906196 -1.405183 6.948310 0.534873 1.249434 13.391131 -2.646751 0.000000 0.000000 0.000000
18.527400 74.475696 364.748872 0.116710 2.870588 7.291808 0.136458 -0.930185 -7.292574 0.023287 0.072764 0.010390 -7.771153 0.913269 0.114505 0.000000 0.000000 0.000000 -11.519856 -33.104930 1.891693 45.098178 4.715056 -26.609543 -87.118005 -15.317959 26.315845 114.300738 20.702898 -46.564974 0.000000 0.000000 0.000000 0.000000 0.000000 0.000000 -1.863600 -1.661549 0.217090 7.514470 1.880622 -2.266143 3.067984 20.205410 -6.797693 -0.203337 -3.026059 1.133034 0.000000 0.000000 0.000000 0.000000 0.000000 0.000000 -2.524717 -2.200279 -7.828647 0.739883 0.563185 0.047560 0.456433 22.757387 -5.183623 0.000000 0.000000 0.000000 -2.254158 -6.610373 -8.320822 -1.237493 6.947204 0.558180 0.480607 14.275778 -1.734956 0.000000 0.000000 0.000000
18.685513 74.495467 364.571723 0.289864 3.086665 7.458615 0.056697 -0.987404 -7.463550 -0.006708 0.012380 0.012379 -7.862800 0.928402 0.119470 0.000000 0.000000 0.000000 -11.469447 -34.049598 2.011304 46.186312 5.431745 -28.122023 -86.060199 -17.287048 24.811325 113.813127 21.270261 -49.098811 0.000000 0.000000 0.000000 0.000000 0.000000 0.000000 -1.782385 -1.680613 0.212045 7.990019 1.517492 -2.412321 2.693154 17.940757 -5.977023 0.635968 -0.092125 0.042879 0.000000 0.000000 0.000000 0.000000 0.000000 0.000000 -2.765201 -2.407897 -8.012702 0.789121 0.068785 0.071571 0.184099 21.509773 -4.525297 0.000000 0.000000 0.000000 -2.591241 -6.853015 -8.538677 -1.166540 6.542481 0.526736 1.037816 5.995500 -0.134191 0.000000 0.000000 0.000000
18.843238 74.523736 364.383728 0.475033 3.334488 7.740896 -0.022254 -1.050972 -7.750810 -0.029096 -0.031920 0.015277 -8.017497 0.821473 0.097824 0.000000 0.000000 0.000000 -11.103180 -34.819303 2.238338 47.827003 6.368336 -30.184413 -89.669028 -22.100369 22.653329 117.431600 20.394772 -51.540446 0.000000 0.000000 0.000000 0.000000 0.000000 0.000000 -1.663112 -1.781607 0.189105 8.427813 1.153589 -2.544782 1.928809 16.055344 -5.128845 1.429727 1.652425 -0.739551 0.000000 0.000000 0.000000 0.000000 0.000000 0.000000 -3.028231 -2.559943 -8.336480 0.906650 -0.661404 0.138754 -0.110375 21.070257 -4.061769 0.000000 0.000000 0.000000 -2.753152 -7.308104 -8.875812 -1.599834 6.468136 0.485989 1.179681 2.757960 1.158699 0.000000 0.000000 0.000000
19.012459 74.537235 364.196652 0.651313 3.577844 7.999494 -0.076994 -1.073027 -8.014595 -0.037440 -0.066555 0.019430 -8.112709 0.486912 0.032746 0.000000 0.000000 0.000000 -11.247875 -35.945681 2.296650 49.593277 7.365732 -32.343495 -83.545057 -23.616176 20.263879 112.544758 22.992919 -56.210958 0.000000 0.000000 0.000000 0.000000 0.000000 0.000000 -1.429409 -2.047633 0.124251 8.488066 0.754374 -2.554489 1.827946 13.969957 -4.385464 1.555708 3.216322 -1.480372 0.000000 0.000000 0.000000 0.000000 0.000000 0.000000 -3.306283 -2.763959 -8.626895 1.173648 -1.254484 0.226255 -0.431379 21.299721 -3.903790 0.000000 0.000000 0.000000 -2.865843 -7.750995 -9.179511 -2.039327 6.544227 0.464951 0.970264 3.042656 1.786892 0.000000 0.000000 0.000000
19.158989 74.522264 364.005902 0.796135 3.790906 8.225151 -0.091412 -1.068962 -8.243906 -0.021121 -0.097824 0.025780 -8.074812 0.133199 -0.029578 0.000000 0.000000 0.000000 -11.549678 -36.923093 2.280092 51.040096 8.146843 -34.085169 -69.693574 -22.669740 18.209957 101.063875 29.129747 -61.307804 0.000000 0.000000 0.000000 0.000000 0.000000 0.000000 -0.838612 -2.621686 -0.043688 7.968373 0.542509 -2.411352 1.674847 12.386698 -3.745177 0.559608 3.941441 -1.643557 0.000000 0.000000 0.000000 0.000000 0.000000 0.000000 -3.530438 -2.957366 -8.875329 1.266061 -1.659982 0.259826 -0.499565 22.124899 -4.003694 0.000000 0.000000 0.000000 -2.929575 -8.158770 -9.442417 -2.390612 6.668571 0.468105 1.837665 -1.988991 2.567590 0.000000 0.000000 0.000000
19.313746 74.466650 363.814022 0.926228 3.963201 8.340232 -0.077393 -1.018112 -8.361949 -0.007200 -0.138949 0.032398 -7.776267 -0.094934 -0.048259 0.000000 0.000000 0.000000 -11.741599 -37.752067 2.292757 50.613995 8.019065 -34.083003 -50.744997 -19.942661 16.406025 86.508340 37.882466 -66.044297 0.000000 0.000000 0.000000 0.000000 0.000000 0.000000 -0.991713 -2.805135 -0.055984 7.923173 -0.097393 -2.312786 2.103658 10.897142 -3.294060 -1.205331 6.295238 -1.987337 0.000000 0.000000 0.000000 0.000000 0.000000 0.000000 -3.712358 -3.133027 -9.004098 1.205753 -1.915404 0.245235 -0.287444 23.564421 -4.413086 0.000000 0.000000 0.000000 -2.892671 -8.445804 -9.559752 -2.718585 6.761517 0.467417 1.793880 -0.395208 2.265909 0.000000 0.000000 0.000000
19.437374 74.376132 363.637447 1.025826 4.071730 8.326423 -0.026664 -0.939716 -8.348921 0.027574 -0.181848 0.041081 -7.462299 -0.226386 -0.046767 0.000000 0.000000 0.000000 -12.162741 -38.805517 2.244723 51.328205 8.598062 -35.225419 -34.000180 -15.034675 13.021726 66.834688 45.960550 -62.179210 0.000000 0.000000 0.000000 0.000000 0.000000 0.000000 -1.165292 -2.955368 -0.070464 7.970683 -0.685257 -2.248244 2.197044 10.029776 -2.950894 -2.676721 8.829271 -2.254020 0.000000 0.000000 0.000000 0.000000 0.000000 0.000000 -3.817266 -3.260143 -8.992804 1.086888 -2.067514 0.214090 0.643028 27.715544 -6.187210 0.000000 0.000000 0.000000 -2.890517 -8.653005 -9.555395 -2.965359 6.746481 0.454278 1.604312 4.129580 1.338008 0.000000 0.000000 0.000000
19.602201 74.300498 363.430152 1.183589 4.229204 8.488430 0.002286 -0.900172 -8.513476 0.030484 -0.238265 0.049166 -6.936523 -0.304210 -0.019791 0.000000 0.000000 0.000000 -12.561339 -39.857713 2.208434 52.572479 10.298782 -37.134770 -21.146936 -9.974719 8.831336 44.848712 49.478630 -50.966472 0.000000 0.000000 0.000000 0.000000 0.000000 0.000000 -0.395743 -3.411933 -0.226115 7.010740 -0.945081 -2.014850 1.718560 8.422376 -2.196081 -2.871156 9.128961 -2.255926 0.000000 0.000000 0.000000 0.000000 0.000000 0.000000 -4.127317 -3.418843 -9.187029 1.351402 -2.154275 0.264808 0.570856 29.554106 -6.669495 0.000000 0.000000 0.000000 -3.261683 -8.873162 -9.791487 -2.815499 6.781903 0.482152 1.277637 10.749689 -0.063499 0.000000 0.000000 0.000000
